<?xml version="1.0" standalone="no"?>
<!DOCTYPE svg PUBLIC "-//W3C//DTD SVG 20010904//EN"
 "http://www.w3.org/TR/2001/REC-SVG-20010904/DTD/svg10.dtd">
<svg version="1.0" xmlns="http://www.w3.org/2000/svg"
 width="400.000000pt" height="400.000000pt" viewBox="0 0 400.000000 400.000000"
 preserveAspectRatio="xMidYMid meet">
<metadata>
Created by potrace 1.15, written by Peter Selinger 2001-2017
</metadata>
<g transform="translate(0.000000,400.000000) scale(0.100000,-0.100000)"
fill="#000000" stroke="none">
<path d="M0 3351 c0 -576 2 -650 16 -662 8 -7 22 -26 31 -42 21 -41 2 -57 -26
-21 l-21 27 0 -802 0 -801 32 -29 32 -28 -33 -42 c-18 -22 -28 -41 -22 -41 6
0 17 13 25 28 15 28 46 61 46 48 0 -4 -11 -22 -25 -40 -15 -20 -23 -40 -19
-50 4 -12 0 -16 -15 -16 l-21 0 0 -440 0 -440 705 0 c451 0 705 4 705 10 0 6
-6 11 -12 11 -7 1 -17 2 -23 4 -5 1 -20 3 -32 3 -14 1 -25 12 -31 31 -6 16
-19 38 -31 50 -25 25 -12 38 44 43 27 2 39 7 37 17 -1 7 3 19 9 27 7 8 9 17 5
21 -3 3 -6 1 -6 -5 0 -7 -6 -12 -14 -12 -8 0 -31 -9 -51 -21 l-35 -21 -11 32
c-13 35 -28 29 -31 -13 -2 -26 -4 -27 -15 -10 -8 9 -11 24 -7 33 3 8 7 20 7
27 0 6 6 9 13 6 6 -2 15 1 19 7 5 8 14 7 30 -4 13 -9 31 -13 39 -10 20 8 20
13 -1 36 -9 10 -11 18 -5 18 6 0 15 -8 21 -17 8 -15 12 -16 35 -4 20 11 23 17
15 28 -10 11 -14 10 -26 -4 -13 -16 -13 -16 -3 5 7 13 9 27 5 30 -4 4 10 13
32 19 l38 13 -41 -6 c-27 -3 -45 -1 -49 6 -5 8 -20 9 -44 5 -43 -8 -238 -109
-265 -137 -22 -23 -32 -18 -17 10 19 35 26 34 -95 17 -33 -5 -54 -3 -58 3 -9
15 33 42 64 42 14 0 45 10 70 21 25 11 57 21 72 21 15 1 25 5 22 10 -3 4 0 8
5 8 6 0 11 7 11 16 0 9 5 12 12 8 7 -5 8 -3 4 5 -8 13 24 46 101 104 23 18 43
40 43 50 0 10 8 17 18 17 23 0 92 57 92 76 0 8 8 14 18 14 21 0 42 19 42 38 0
8 10 22 23 33 19 16 19 18 5 19 -22 0 -25 42 -4 59 10 9 20 9 40 0 30 -14 32
-25 9 -51 -14 -16 -15 -18 0 -18 9 0 19 -4 22 -10 9 -15 -37 -71 -53 -65 -8 3
-12 0 -9 -7 2 -7 13 -13 24 -12 18 0 18 -2 7 -35 -23 -64 -21 -68 51 -76 35
-3 73 -4 84 0 11 3 22 1 26 -5 7 -11 35 11 35 29 0 5 6 16 14 24 8 8 21 30 30
51 13 32 13 36 0 36 -9 0 -26 -24 -40 -54 -19 -41 -32 -57 -55 -65 -27 -9 -30
-8 -25 5 3 9 6 18 6 20 0 3 5 2 10 -1 6 -3 15 6 20 20 6 16 14 23 22 19 7 -4
8 -3 4 4 -4 7 -14 12 -22 12 -24 0 -16 17 19 39 19 11 39 32 45 46 11 23 9 26
-13 35 -27 10 -32 24 -12 37 12 8 18 10 40 12 16 1 47 73 51 117 2 25 -3 35
-21 45 -13 7 -23 17 -23 23 0 6 -5 4 -10 -4 -8 -13 -10 -12 -10 3 0 11 -8 17
-22 18 -17 1 -19 2 -5 6 18 5 24 23 7 23 -5 0 -10 9 -10 21 0 15 -4 19 -16 15
-14 -6 -15 -4 -4 9 12 15 15 14 29 -9 9 -14 19 -26 23 -26 12 0 10 3 -16 39
-21 28 -25 30 -33 16 -5 -9 -21 -18 -36 -19 -15 -2 -34 -9 -44 -17 -9 -8 -14
-9 -10 -2 8 13 -31 45 -45 37 -4 -3 -8 3 -8 13 0 14 -2 15 -9 4 -5 -8 -11 -9
-15 -3 -6 9 30 28 45 24 4 0 15 9 25 21 10 12 12 17 5 10 -12 -10 -18 -8 -34
10 l-19 22 6 -22 c4 -12 2 -24 -5 -29 -7 -4 -9 -3 -5 4 3 6 -3 16 -14 22 -12
6 -20 7 -20 1 0 -5 6 -12 13 -14 6 -3 3 -6 -8 -6 -17 -1 -18 -3 -5 -12 11 -8
5 -9 -25 -5 -62 8 -81 12 -93 20 -7 4 -10 -1 -7 -14 2 -11 -3 -24 -13 -30 -9
-5 -12 -10 -5 -10 12 0 12 -81 -1 -111 -5 -12 1 -20 23 -30 17 -8 31 -18 31
-23 0 -5 14 7 31 25 20 22 32 30 36 22 8 -21 45 -60 40 -42 -4 11 0 16 11 15
10 0 16 5 14 14 -3 12 -1 13 9 3 17 -17 32 -17 24 0 -4 6 2 2 12 -11 17 -21
21 -22 46 -9 15 8 24 17 20 20 -3 4 -1 7 5 7 6 0 14 -5 17 -11 5 -7 14 -4 28
8 11 10 17 13 13 6 -4 -8 3 -15 20 -19 17 -4 22 -9 14 -14 -9 -5 -9 -13 -2
-25 8 -15 4 -23 -18 -42 -15 -12 -31 -23 -34 -23 -4 0 -22 15 -41 34 l-35 35
-27 -39 c-16 -22 -35 -40 -43 -40 -24 0 -104 31 -113 43 -5 7 -7 3 -4 -10 3
-14 0 -23 -6 -23 -7 0 -29 -5 -50 -11 l-37 -10 29 -25 c25 -21 29 -30 25 -57
-9 -52 -26 -77 -58 -86 -51 -13 -67 13 -39 65 12 20 11 99 -1 111 -3 3 -41
-28 -83 -70 -98 -95 -128 -119 -180 -147 -23 -12 -62 -39 -86 -61 -57 -50 -78
-51 -27 -2 58 57 87 83 93 83 10 0 107 63 103 67 -2 2 -28 -11 -57 -28 -30
-18 -62 -32 -72 -31 -9 0 -15 -3 -12 -7 3 -5 -11 -21 -30 -35 l-34 -27 -15 35
-14 35 -73 -26 c-40 -13 -79 -31 -86 -39 -8 -8 -20 -15 -26 -15 -57 -6 -56 -7
-47 15 5 16 16 21 41 21 35 0 49 23 20 33 -8 3 -11 0 -7 -7 4 -6 2 -11 -4 -11
-6 0 -16 14 -22 30 -8 24 -13 28 -23 20 -10 -8 -19 -8 -33 -1 -20 10 -19 12 6
61 20 38 32 50 47 48 12 -2 19 -9 17 -19 -2 -13 4 -15 24 -11 18 3 30 0 36
-11 4 -9 15 -14 23 -11 8 4 18 -1 21 -10 9 -25 39 -19 76 14 35 32 49 36 78
20 14 -7 19 -5 23 10 4 16 11 18 41 13 24 -4 36 -2 34 5 -2 6 6 18 17 26 19
15 19 15 -12 16 -31 0 -33 2 -33 36 0 21 -4 33 -10 29 -5 -3 -10 -16 -10 -29
0 -40 -21 -55 -80 -58 -46 -3 -55 0 -55 14 0 9 -4 20 -8 24 -17 18 -5 54 28
83 20 17 37 31 39 31 2 0 25 -12 51 -26 47 -27 55 -26 67 9 2 4 18 3 36 -3 19
-5 47 -7 62 -3 25 5 28 3 23 -16 -3 -11 -1 -21 3 -21 16 0 52 158 40 171 -8 9
-8 10 1 5 9 -5 11 -2 7 8 -3 9 -1 16 5 16 6 0 11 7 11 16 0 10 5 14 16 10 8
-3 12 -2 9 4 -3 6 -1 10 4 10 6 0 11 -5 11 -11 0 -6 5 -7 12 -2 18 11 62 10
70 -2 4 -5 6 0 5 13 -1 24 -12 29 -20 10 -4 -10 -8 -9 -16 2 -10 13 -11 13
-11 0 -1 -12 -2 -12 -10 2 -9 15 -13 15 -47 -2 -21 -10 -42 -15 -48 -12 -5 3
-4 -2 4 -11 12 -16 8 -22 -12 -18 -5 1 -6 -3 -3 -8 4 -5 -5 -18 -20 -28 -14
-10 -34 -26 -45 -35 -10 -10 -19 -14 -19 -9 0 5 -8 11 -19 14 -27 7 -37 96
-13 116 16 13 16 13 -1 7 -10 -3 -21 -6 -23 -6 -2 0 -4 -8 -4 -17 0 -13 -3
-14 -8 -5 -6 9 -16 10 -40 1 l-31 -11 5 -64 c3 -40 1 -64 -5 -64 -5 0 -9 24
-9 55 1 30 -1 57 -4 60 -3 4 -33 -5 -67 -19 -33 -14 -62 -26 -65 -26 -2 0 -17
32 -32 71 -27 69 -27 72 -10 85 11 7 24 15 30 17 6 3 -1 17 -16 34 -26 27 -27
30 -12 51 8 12 12 22 8 22 -4 0 2 9 14 20 25 23 59 25 86 5 24 -18 36 -11 36
21 0 19 5 24 25 24 20 0 25 5 25 25 0 18 5 25 20 25 11 0 20 -4 20 -10 0 -5 6
-10 14 -10 8 0 18 -4 21 -10 3 -5 0 -7 -9 -4 -11 4 -14 0 -11 -14 3 -15 -1
-18 -21 -14 -19 3 -24 0 -24 -16 0 -12 -5 -24 -11 -27 -6 -4 -8 -14 -5 -22 4
-9 1 -22 -6 -31 -11 -13 -8 -12 20 2 17 9 32 21 32 27 0 6 4 8 9 5 16 -10 41
5 41 25 0 11 6 22 14 25 17 7 28 42 15 50 -5 3 -5 12 0 22 5 9 8 32 6 50 -1
27 2 32 21 32 12 0 25 7 28 16 8 22 8 26 -3 19 -5 -3 -13 0 -17 6 -4 8 -3 9 4
5 11 -7 16 5 13 30 -1 6 18 19 40 30 l42 18 -31 13 c-31 13 -31 13 -18 50 8
22 20 38 29 38 24 0 25 8 5 28 -17 16 -18 16 -18 -3 0 -12 -5 -17 -14 -14 -10
4 -12 -2 -9 -20 3 -16 1 -26 -7 -26 -7 0 -9 8 -5 21 5 14 4 19 -4 15 -7 -5 -9
-1 -5 8 3 9 14 16 23 17 11 0 12 2 3 6 -7 3 -22 -3 -33 -13 -13 -12 -19 -13
-19 -4 0 10 -3 10 -15 0 -13 -11 -14 -10 -9 4 4 10 13 15 21 12 9 -4 11 -2 7
6 -4 6 -3 8 4 4 6 -3 13 -2 16 3 3 5 -2 11 -12 13 -13 4 -25 -4 -38 -23 -10
-16 -25 -27 -32 -24 -8 3 -32 5 -54 5 -32 0 -39 3 -34 15 6 17 -9 21 -19 4 -4
-6 -20 8 -38 33 -50 68 -64 74 -74 27 l-6 -31 -54 5 c-43 5 -64 1 -110 -19
-31 -14 -59 -21 -63 -17 -10 11 -44 103 -39 107 2 1 15 10 28 19 l24 16 -27
11 c-34 13 -46 13 -46 0 0 -5 8 -10 17 -10 15 0 14 -2 -3 -19 -17 -17 -20 -17
-31 -4 -12 16 -14 16 -128 -3 -50 -8 -105 -11 -106 -5 0 3 -2 18 -4 34 -4 31
-2 33 20 11 17 -17 105 -26 105 -10 0 4 14 6 30 4 17 -3 30 -2 30 1 0 9 52 31
73 31 11 0 18 6 16 18 -3 32 1 43 13 36 7 -5 9 -2 5 9 -3 9 -1 18 6 20 7 2 9
7 5 11 -3 4 -15 3 -26 -3 -12 -6 -30 -11 -41 -11 -12 0 -21 -7 -21 -15 0 -12
7 -14 26 -9 20 5 25 3 22 -7 -3 -8 -13 -14 -24 -14 -10 -1 -25 -4 -31 -8 -7
-5 -23 -2 -35 5 l-23 12 28 10 c44 16 31 25 -30 23 -51 -2 -58 0 -60 18 -2 11
0 14 3 8 3 -7 17 -13 31 -13 24 0 25 1 11 22 -8 12 -19 23 -25 25 -16 6 -63
-44 -57 -61 8 -21 -30 -40 -56 -26 -11 6 -20 7 -20 3 0 -4 -7 2 -15 15 -12 16
-13 27 -6 41 7 11 7 21 2 23 -5 2 -12 14 -16 28 -5 23 -3 25 36 27 33 2 40 0
35 -12 -21 -51 -21 -49 6 -31 22 14 26 14 31 3 3 -8 0 -20 -6 -26 -8 -8 -8
-11 1 -11 11 0 14 7 11 26 -1 12 25 23 76 29 27 4 55 11 61 16 7 6 16 9 20 8
21 -3 35 2 29 11 -3 6 -2 10 4 10 5 0 13 -5 16 -10 9 -15 126 -5 164 14 20 11
31 23 27 31 -3 8 -1 17 5 20 17 11 -2 25 -34 25 -28 1 -30 2 -15 13 19 15 13
29 -19 46 l-22 11 21 25 c16 19 32 25 60 25 24 0 37 -4 33 -10 -3 -5 -1 -10 4
-10 14 0 14 6 0 31 -6 11 -16 18 -23 16 -7 -3 -18 4 -24 14 -7 10 -18 19 -25
19 -7 -1 -5 -6 6 -14 24 -18 22 -22 -21 -48 -41 -25 -47 -43 -19 -63 23 -17
13 -40 -18 -41 -22 -2 -30 6 -26 29 2 11 -29 8 -81 -7 -38 -12 -46 -12 -42 -1
7 18 -15 30 -29 16 -18 -18 -48 -13 -54 8 -3 11 -11 22 -19 25 -8 3 -14 16
-14 29 0 22 11 28 93 56 50 18 103 37 117 43 l25 10 -22 11 c-17 7 -28 6 -47
-7 -32 -20 -45 -20 -68 1 -17 15 -20 15 -39 -5 -11 -12 -23 -22 -26 -22 -4 0
-2 5 5 12 15 15 16 32 2 23 -11 -7 -12 -5 -16 44 -1 19 -10 38 -18 43 -9 5
-16 20 -16 33 0 25 -20 40 -69 56 -24 7 -25 7 -3 8 12 1 22 5 22 10 0 6 -15 7
-34 4 -28 -4 -34 -2 -39 18 -4 14 -1 27 6 31 8 5 7 8 -4 8 -9 0 -20 7 -23 16
-9 24 -8 24 20 13 15 -5 29 -8 31 -6 2 3 -15 12 -38 21 -36 14 -40 20 -35 40
3 14 3 26 -2 29 -4 2 -1 2 7 0 9 -2 12 3 8 17 -9 34 21 3 44 -44 19 -41 19
-41 67 -38 45 3 51 1 80 -33 32 -36 44 -73 20 -59 -10 5 -10 4 -1 -6 10 -11
15 -11 29 1 12 9 15 10 10 2 -4 -7 -2 -13 3 -13 6 0 11 4 11 8 0 5 17 22 38
39 36 29 41 31 80 20 33 -9 44 -8 54 2 11 11 10 13 -4 8 -22 -8 -23 6 -3 23
14 12 13 16 -6 36 -19 21 -20 26 -8 41 29 37 39 40 65 16 21 -20 29 -43 15
-43 -5 0 -12 -7 -15 -16 -3 -8 -2 -12 4 -9 14 9 13 -18 -1 -32 -7 -7 25 0 70
15 67 22 77 28 55 32 -15 3 -28 12 -30 20 -1 8 -3 22 -5 30 -2 8 2 14 9 12 7
-1 12 3 11 10 -3 26 1 39 11 33 6 -3 7 1 4 9 -3 9 -2 16 4 16 6 0 6 9 -1 25
-10 20 -22 26 -59 31 -26 4 -45 10 -42 15 7 12 54 11 54 -1 0 -6 8 -6 23 0 12
5 33 11 47 14 17 3 26 13 27 26 1 16 -3 19 -20 15 -35 -7 -210 -28 -232 -27
-11 1 -38 1 -60 2 -27 1 -35 4 -25 10 12 7 11 10 -4 16 -10 4 -22 16 -26 28
-8 19 -9 19 -9 -6 -1 -16 4 -28 9 -28 6 0 10 -4 10 -10 0 -6 -27 -10 -61 -10
-40 0 -58 4 -54 11 4 6 12 8 19 6 8 -3 11 4 8 25 -4 28 -3 30 19 24 17 -5 14
-1 -9 12 -18 10 -31 20 -28 23 3 2 -29 0 -70 -5 -40 -5 -74 -13 -74 -18 0 -4
-5 -8 -11 -8 -5 0 -8 4 -5 9 4 5 -3 7 -14 4 -11 -3 -20 -14 -20 -24 0 -24 5
-24 46 1 18 12 35 17 38 11 8 -13 -23 -43 -36 -35 -5 4 -8 -3 -6 -16 2 -14 -3
-25 -12 -27 -12 -4 -12 -3 -2 5 10 7 6 11 -17 15 -17 4 -31 12 -31 19 0 7 -12
14 -26 14 -34 2 -35 5 -37 59 -2 39 2 50 23 66 14 10 30 23 37 29 8 6 13 5 16
-3 2 -6 6 -2 9 11 5 19 4 20 -13 11 -11 -5 -24 -7 -29 -4 -6 4 -13 -1 -16 -9
-8 -20 -48 -21 -64 -1 -15 18 -3 58 16 51 7 -3 16 -1 19 4 4 6 -5 10 -19 10
-14 0 -26 5 -26 10 0 6 11 10 24 10 13 0 29 7 36 15 10 12 10 15 0 15 -8 0
-11 2 -8 5 3 3 17 0 32 -6 24 -12 25 -13 10 -30 -15 -17 -15 -19 -1 -25 8 -3
28 1 44 10 15 8 22 15 15 16 -10 0 -9 4 3 16 24 25 28 11 9 -35 -13 -33 -14
-48 -6 -66 9 -19 8 -25 -4 -29 -9 -3 -20 -4 -25 0 -5 3 -9 1 -9 -4 0 -5 -11
-14 -25 -20 -39 -18 -31 -35 15 -29 26 3 40 0 40 -7 0 -8 3 -8 8 0 4 6 28 16
55 24 26 7 47 17 47 21 0 5 7 9 16 9 9 0 21 14 27 30 8 21 18 30 34 30 13 0
23 5 23 11 0 7 -10 9 -25 5 -37 -9 -35 31 3 45 l27 11 -22 12 c-22 11 -22 12
-4 28 11 9 30 18 43 20 15 2 24 11 26 26 2 14 10 22 23 22 10 0 19 5 19 10 0
6 18 10 40 10 48 0 55 -24 12 -41 -15 -6 -35 -15 -44 -20 -10 -5 -26 -9 -36
-9 -10 0 -26 -14 -36 -31 l-18 -31 23 8 c13 4 34 8 46 8 12 1 35 13 50 29 16
15 32 27 36 27 9 0 9 -27 0 -33 -5 -2 -1 -1 7 2 8 2 33 3 55 2 22 -2 50 -4 63
-5 18 -1 22 -5 18 -21 -3 -11 -6 -23 -6 -27 0 -4 -7 -5 -15 -2 -8 4 -15 2 -15
-3 0 -5 -13 -8 -30 -5 -17 2 -30 0 -30 -6 0 -10 -60 -35 -67 -28 -2 2 -6 14
-8 26 -3 13 -10 28 -16 34 -9 8 -10 8 -6 0 10 -17 -17 -35 -39 -27 -16 6 -17
5 -6 -9 11 -14 10 -19 -9 -31 -30 -21 -18 -47 21 -47 17 0 38 -6 45 -14 9 -9
35 -14 72 -13 32 0 46 2 31 4 -28 4 -36 17 -18 28 5 3 7 11 4 18 -8 21 37 40
66 28 14 -5 20 -10 14 -10 -7 -1 -14 -10 -17 -22 -4 -15 -2 -19 9 -15 9 3 12
1 9 -4 -3 -6 -1 -10 4 -10 6 0 11 6 11 14 0 18 29 29 45 16 6 -5 15 -6 19 -2
4 4 7 2 6 -3 -6 -30 1 -37 29 -32 27 6 30 3 33 -20 2 -18 10 -29 24 -33 18 -4
20 -9 13 -27 -5 -13 -13 -23 -19 -23 -13 0 -13 -30 0 -31 6 -1 14 -2 19 -3 5
0 12 -4 16 -8 4 -4 18 -3 31 2 15 6 34 6 49 0 19 -7 25 -6 25 4 0 8 -6 14 -12
13 -41 -1 -49 3 -43 23 4 14 2 18 -7 15 -14 -6 -41 49 -30 59 9 9 60 7 66 -3
6 -9 96 17 96 28 0 10 -64 42 -115 58 -25 7 -29 13 -27 36 2 15 -1 27 -6 27
-5 0 -8 -9 -8 -20 1 -10 -3 -19 -7 -19 -4 0 -15 -7 -24 -16 -8 -9 -18 -13 -21
-10 -4 3 0 10 8 15 20 13 8 12 -26 0 -24 -9 -25 -9 -14 5 11 13 8 13 -19 4
-17 -6 -39 -8 -48 -5 -14 6 -12 10 13 25 33 20 69 84 58 103 -4 6 -3 8 3 5 6
-4 19 0 29 8 10 8 27 15 37 15 11 0 15 5 11 11 -8 14 38 1 47 -13 3 -4 20 -10
39 -13 25 -3 30 -1 21 8 -21 21 -11 30 12 11 22 -19 22 -19 5 2 -22 25 -23 38
-4 31 11 -4 13 -1 9 10 -4 11 -2 14 5 9 7 -4 12 -1 12 7 0 10 10 13 35 12 19
-2 35 0 35 4 0 9 -51 31 -60 26 -4 -3 -7 5 -6 18 1 18 -4 22 -27 21 -22 0 -27
4 -25 20 2 11 13 26 25 32 13 6 20 14 16 17 -3 4 -2 7 3 8 5 0 19 2 31 3 12 1
32 -7 45 -18 22 -20 58 -31 58 -17 0 3 -44 31 -98 61 -53 31 -98 63 -100 72
-2 11 9 20 35 28 65 21 135 62 121 72 -10 6 -10 8 2 8 8 0 59 -22 113 -49 l97
-49 103 35 c74 25 90 33 60 30 -32 -4 -48 0 -65 15 -22 18 -22 20 -5 32 14 11
8 13 -40 11 -32 -1 -67 -5 -78 -8 -11 -3 -36 -2 -55 2 -30 7 -32 9 -15 16 11
5 27 17 36 27 9 10 21 18 26 18 6 0 16 7 23 15 11 13 -68 15 -699 15 l-711 0
0 -649z m430 361 c0 -5 12 -12 27 -18 l28 -9 -23 -23 c-19 -19 -21 -26 -11
-44 9 -16 8 -22 -2 -29 -10 -6 -7 -9 10 -9 13 0 22 -3 18 -6 -3 -3 -2 -17 3
-30 11 -28 0 -37 -35 -28 -21 5 -25 12 -25 41 0 27 -3 34 -15 29 -9 -3 -19 3
-25 14 -9 16 -7 20 7 20 10 0 24 4 32 9 9 6 -1 9 -28 9 -24 1 -40 -4 -38 -10
1 -6 -13 -13 -32 -15 -31 -4 -33 -3 -22 11 7 9 11 23 7 31 -3 9 0 15 9 15 8 0
15 4 15 10 0 5 7 7 15 4 8 -4 15 -1 15 5 0 6 7 11 15 11 8 0 15 5 15 10 0 6 9
10 20 10 11 0 20 -4 20 -8z m-214 -2517 c16 -43 19 -45 46 -40 32 7 39 -10 8
-20 -11 -4 -27 -19 -35 -34 -10 -21 -24 -30 -52 -35 -56 -9 -93 -7 -93 4 0 6
4 10 8 10 12 0 30 77 21 92 -16 25 -9 46 19 56 50 19 59 14 78 -33z m556 -730
c-2 -14 0 -25 6 -25 7 0 6 -9 -1 -25 -7 -14 -15 -25 -19 -25 -5 0 -8 -9 -8
-20 0 -18 16 -25 43 -21 4 0 7 -3 7 -9 0 -5 -6 -10 -14 -10 -8 0 -12 -7 -10
-17 3 -13 -6 -23 -28 -34 -31 -15 -36 -25 -27 -57 6 -20 -61 -40 -87 -27 -24
12 -26 52 -3 66 40 24 40 25 30 67 -9 41 -8 42 18 48 60 13 61 14 61 51 l0 36
-40 -6 c-22 -3 -40 -1 -40 4 0 5 17 9 38 10 29 0 62 8 78 18 1 1 -1 -10 -4
-24z m83 -255 c-4 -6 3 -26 15 -44 14 -24 17 -36 9 -41 -6 -4 -15 -1 -20 6 -7
12 -9 12 -9 0 0 -8 -6 -11 -16 -7 -10 4 -13 2 -8 -6 5 -8 2 -9 -9 -5 -9 3 -38
-5 -65 -19 -37 -19 -61 -24 -98 -22 l-49 3 30 17 30 17 -42 -4 c-22 -2 -55
-10 -71 -19 -27 -14 -31 -14 -36 0 -7 19 1 34 17 34 7 0 29 5 51 11 28 8 35
14 27 22 -6 6 -11 18 -11 26 0 11 7 8 26 -10 28 -29 16 -31 144 29 48 22 95
29 85 12z"/>
<path d="M1677 3993 c-4 -3 -7 -17 -7 -30 0 -17 -6 -23 -22 -24 -13 -1 4 -6
37 -13 47 -9 61 -8 63 1 2 7 10 13 18 13 8 0 14 7 14 15 0 21 9 19 31 -7 16
-18 19 -19 19 -4 0 10 6 16 13 13 6 -2 11 -12 9 -22 -2 -10 1 -14 8 -10 6 3 9
14 8 22 -2 9 3 18 10 20 7 3 10 -1 6 -11 -5 -13 -2 -13 19 -3 14 6 25 16 24
21 -1 6 12 13 28 17 17 4 -29 7 -102 8 -112 1 -133 -1 -133 -14 0 -8 -4 -15
-10 -15 -5 0 -7 7 -4 15 6 15 -16 21 -29 8z"/>
<path d="M2730 3991 c0 -6 7 -8 15 -5 8 4 15 1 15 -5 0 -6 -11 -16 -24 -21
-13 -5 -27 -14 -31 -19 -3 -6 -22 -9 -41 -7 -19 3 -34 0 -34 -5 0 -6 -4 -8 -9
-4 -6 3 -15 -4 -21 -15 -8 -14 -21 -20 -46 -20 -19 0 -33 -4 -30 -9 4 -5 -4
-7 -16 -3 -13 3 -19 1 -15 -5 5 -7 0 -9 -13 -6 -11 3 -20 9 -20 14 0 5 -4 9
-10 9 -5 0 -10 -6 -10 -13 0 -15 -53 -39 -87 -39 -16 0 -22 -5 -19 -14 8 -21
-40 -29 -59 -10 -13 12 -13 16 -3 16 8 0 19 -5 26 -12 8 -8 12 -9 12 -1 0 6
-6 13 -12 16 -10 3 -10 7 -1 18 18 22 13 60 -7 50 -8 -5 -36 -11 -62 -14 -40
-6 -49 -4 -58 13 -5 10 -10 28 -10 39 0 12 -4 21 -9 21 -12 0 -41 -28 -41 -40
0 -4 -11 -10 -25 -12 -14 -3 -25 -1 -25 4 0 5 -5 6 -11 3 -6 -4 -17 1 -24 11
-9 11 -14 14 -15 7 0 -7 -6 -13 -14 -13 -8 0 -47 -11 -88 -25 -40 -14 -74 -25
-76 -25 -2 0 0 10 3 23 5 17 4 19 -4 7 -6 -8 -8 -23 -5 -34 4 -12 2 -16 -5
-12 -6 4 -11 3 -11 -1 0 -5 -9 -9 -21 -10 -26 -2 -79 -26 -79 -35 0 -4 14 -5
30 -1 34 6 44 -15 11 -24 -12 -3 -19 -13 -18 -24 2 -24 13 -24 26 -1 6 9 11
12 11 5 0 -16 40 -4 40 13 0 10 6 10 28 -3 26 -15 31 -15 63 1 19 10 61 27 94
38 33 12 72 30 86 40 28 21 80 21 87 0 2 -7 -2 -10 -11 -7 -7 3 -20 -1 -27 -9
-10 -13 -9 -20 4 -41 18 -27 14 -45 -9 -45 -8 0 -18 -7 -23 -16 -6 -11 -24
-17 -56 -18 -32 -1 -45 -5 -41 -13 2 -7 0 -15 -5 -18 -16 -10 -11 -22 10 -28
11 -3 20 -10 20 -15 0 -16 -40 -21 -54 -6 -8 8 -19 14 -25 14 -6 0 -11 5 -11
10 0 19 -49 10 -64 -12 -21 -29 -20 -35 3 -41 14 -3 17 -11 14 -31 -5 -25 11
-38 19 -15 2 5 18 11 36 11 19 1 37 8 42 17 7 12 9 13 10 2 0 -10 6 -7 19 7
10 12 21 18 25 15 4 -4 4 0 1 9 -4 10 -3 23 1 30 5 7 9 19 10 26 2 8 6 17 10
20 4 4 4 -1 1 -11 -5 -13 0 -20 20 -28 15 -5 34 -7 42 -4 9 3 5 -4 -9 -15
l-25 -21 32 15 c18 9 38 16 46 16 7 0 23 9 35 20 27 25 49 25 70 0 24 -28 61
-17 59 16 -2 22 5 27 53 44 30 11 62 19 70 20 8 0 33 17 55 39 49 47 112 84
132 77 8 -3 12 -2 9 3 -6 8 22 22 74 37 14 4 48 7 76 8 39 1 50 -2 47 -11 -3
-8 -10 -13 -17 -12 -23 3 -36 -1 -36 -12 0 -6 15 -10 33 -9 17 1 42 2 55 1 23
-1 23 -1 -4 -25 -26 -22 -64 -25 -64 -5 0 13 -33 6 -62 -13 -20 -13 -28 -14
-38 -5 -10 9 -11 9 -6 0 4 -8 1 -13 -8 -13 -9 0 -24 -8 -34 -17 -10 -10 -34
-29 -55 -43 -20 -14 -37 -27 -37 -30 0 -7 89 -2 109 5 7 3 11 12 8 20 -4 9 -1
12 8 9 7 -3 27 2 44 10 16 9 33 16 36 16 10 0 -2 -60 -15 -76 -16 -19 -29 -18
-53 4 -19 16 -20 16 -14 -6 5 -21 3 -22 -29 -16 -19 3 -34 2 -34 -3 0 -5 -18
-19 -40 -32 -50 -28 -51 -34 -2 -15 33 13 35 13 18 0 -14 -12 -17 -23 -12 -46
4 -23 2 -30 -7 -28 -6 3 -14 15 -15 28 -3 18 -6 20 -12 9 -5 -8 -17 -14 -26
-14 -10 0 -18 -6 -20 -13 -1 -7 0 -8 3 -2 6 12 23 13 23 1 0 -5 -13 -14 -29
-21 -16 -6 -32 -18 -34 -25 -3 -7 -20 -23 -39 -35 -33 -23 -33 -23 7 18 21 23
34 42 27 42 -7 0 -12 -4 -12 -9 0 -14 -32 -23 -43 -12 -9 9 -87 -22 -87 -35 0
-3 5 -2 11 2 22 13 71 15 66 1 -2 -6 -10 -11 -16 -9 -6 1 -14 -5 -17 -13 -4
-8 -14 -15 -23 -15 -13 0 -16 -7 -13 -33 4 -37 -17 -63 -43 -53 -19 7 -20 35
0 42 10 4 12 15 8 37 -9 48 -21 56 -43 27 -11 -14 -20 -19 -20 -12 0 6 -5 12
-10 12 -7 0 -7 -6 -1 -18 8 -15 3 -24 -24 -46 -38 -32 -37 -54 6 -90 16 -14
29 -29 29 -35 0 -14 40 -55 68 -70 25 -13 62 -67 62 -90 0 -11 -4 -9 -16 5
-13 16 -15 16 -10 2 3 -10 1 -20 -4 -23 -6 -4 -10 0 -10 7 0 8 -5 5 -11 -5 -8
-14 -18 -17 -37 -13 -15 3 -21 3 -14 0 10 -5 9 -10 -5 -21 -10 -8 -13 -12 -8
-10 32 15 115 35 109 26 -3 -6 4 -24 16 -41 12 -16 18 -33 14 -38 -5 -4 -41
-20 -81 -35 -65 -25 -71 -30 -62 -47 6 -11 25 -26 43 -33 52 -22 73 -65 55
-113 -12 -32 -4 -61 13 -44 18 18 46 14 58 -8 6 -11 7 -20 3 -20 -11 -1 40
-29 52 -30 6 0 16 14 24 31 17 38 24 33 12 -9 -9 -28 -7 -33 12 -37 12 -3 40
1 62 9 22 8 34 15 28 15 -7 1 -12 11 -12 24 1 12 -2 30 -6 40 -5 12 -3 17 9
17 9 0 16 5 16 11 0 6 -9 8 -20 4 -21 -7 -28 10 -7 18 10 4 10 6 0 6 -18 1
-16 31 2 31 8 0 15 -7 15 -15 0 -24 26 -28 54 -10 40 26 70 13 85 -36 7 -22
26 -63 43 -90 33 -54 41 -54 87 -5 14 14 30 26 37 26 7 0 16 9 19 20 4 13 15
20 31 20 30 0 42 25 25 52 -8 14 -9 23 -2 32 12 14 -4 86 -19 86 -6 0 -10 7
-10 15 0 8 -4 15 -9 15 -4 0 -6 10 -4 23 4 18 15 26 49 35 24 7 44 16 44 22 0
19 29 10 36 -12 6 -20 7 -20 19 9 7 17 21 35 31 41 11 6 15 16 11 26 -9 22 13
56 36 56 10 0 16 4 13 8 -3 5 8 6 25 4 16 -2 29 -10 29 -18 0 -8 -5 -13 -11
-11 -6 1 -16 -5 -21 -14 -9 -12 -6 -21 10 -37 12 -12 22 -18 22 -14 0 4 -5 13
-12 20 -9 9 -9 12 3 12 9 0 22 -11 29 -25 12 -23 32 -35 29 -17 -4 25 3 34 11
15 6 -14 18 -23 31 -23 12 0 28 -8 35 -17 12 -16 13 -15 14 15 0 47 0 46 17
56 12 7 11 12 -12 36 -15 16 -34 26 -41 23 -8 -3 -14 0 -14 6 0 16 36 13 50
-4 17 -21 32 -19 87 11 55 30 72 44 55 44 -6 0 -9 7 -6 15 4 8 12 15 19 15 8
0 21 7 30 17 13 12 19 13 24 4 6 -8 12 -3 20 17 11 26 16 29 47 25 23 -2 33 0
29 7 -6 10 7 14 32 11 8 -1 10 5 6 15 -5 14 -3 16 12 11 15 -6 17 -3 12 23 -4
16 -3 30 1 30 4 0 18 9 31 19 l25 19 -27 33 c-14 19 -33 42 -41 51 -15 17 -15
61 0 152 14 86 -7 184 -45 213 -22 16 -12 23 87 60 l87 32 -67 0 c-39 1 -70
-4 -74 -10 -3 -6 -22 -17 -40 -25 -30 -13 -38 -12 -64 1 -17 9 -28 20 -25 25
4 6 -23 10 -67 10 l-74 0 4 -40 c5 -45 -18 -64 -45 -37 -14 13 -13 17 6 36 12
12 21 25 21 30 0 5 -162 9 -360 10 -240 2 -360 -1 -360 -8z m262 -11 c11 0 15
-5 12 -15 -7 -18 17 -20 33 -4 6 6 21 9 33 7 l23 -3 -27 -32 c-18 -21 -33 -30
-44 -26 -13 4 -13 2 3 -11 19 -15 19 -17 3 -30 -22 -16 -23 -23 -3 -23 8 0 12
4 9 9 -3 4 0 8 6 8 7 0 9 -7 6 -16 -3 -9 -6 -19 -6 -23 0 -5 -18 -21 -40 -36
-29 -20 -47 -26 -68 -22 -21 4 -39 -1 -65 -19 -38 -26 -57 -30 -57 -14 0 18
64 69 86 70 12 0 32 8 45 19 13 10 30 16 37 14 6 -3 12 0 12 7 0 6 -4 9 -9 6
-4 -3 -17 4 -27 15 -14 15 -15 22 -6 28 7 4 10 15 6 24 -5 13 -15 16 -48 12
-26 -3 -36 -2 -27 4 8 5 19 7 25 5 7 -3 20 2 31 10 19 15 19 15 -2 9 -13 -3
-23 -1 -23 4 0 18 25 34 45 29 11 -3 28 -6 37 -6z m-186 -353 c-28 -36 -34
-71 -14 -83 7 -4 8 -3 4 4 -4 8 0 12 10 12 15 0 16 2 3 13 -8 6 -12 11 -10 10
2 -2 11 3 19 10 13 10 14 9 7 -2 -6 -11 -4 -13 8 -8 12 4 14 2 10 -10 -5 -13
-2 -15 11 -10 9 4 15 3 11 -2 -3 -5 4 -16 15 -24 21 -14 21 -15 -5 -46 -25
-29 -28 -30 -48 -16 -30 21 -48 19 -87 -10 -19 -14 -40 -23 -48 -20 -7 2 -11
1 -8 -4 6 -9 -23 -25 -31 -18 -2 2 20 34 47 70 28 37 45 67 38 67 -7 0 -31 14
-52 30 -32 24 -35 30 -19 30 11 0 32 -9 46 -20 36 -28 43 -26 79 25 17 25 34
43 36 41 2 -3 -8 -20 -22 -39z m-152 -242 c-4 -8 -9 -13 -14 -10 -4 2 -16 -6
-28 -19 -20 -23 -14 -46 12 -46 17 0 56 -43 56 -61 0 -10 -4 -29 -10 -44 l-10
-25 -44 22 c-25 13 -47 31 -49 41 -3 9 -15 17 -26 17 -37 0 -23 33 40 92 58
54 85 66 73 33z"/>
<path d="M1756 3585 c-3 -9 -3 -22 1 -28 3 -7 3 -9 -2 -5 -4 4 -16 -2 -27 -14
-10 -12 -21 -18 -25 -15 -3 4 -12 2 -20 -5 -11 -8 -12 -7 -7 6 4 11 1 16 -10
16 -9 0 -15 -3 -15 -7 1 -5 1 -16 0 -25 -1 -22 -37 -24 -48 -4 -7 13 -14 12
-48 -3 -38 -17 -39 -18 -17 -25 13 -4 22 -10 19 -12 -2 -3 -17 0 -33 6 -25 9
-27 8 -12 -3 10 -8 15 -17 11 -21 -3 -3 -15 1 -25 11 -12 10 -18 12 -18 4 0
-8 -7 -10 -19 -6 -11 3 -25 -1 -34 -10 -9 -8 -23 -12 -31 -9 -27 11 -17 -4 13
-19 23 -11 28 -12 25 -2 -11 27 60 44 74 19 9 -16 42 -9 42 8 0 5 10 6 23 3
16 -5 18 -4 8 4 -12 8 -12 12 -2 25 10 12 18 13 36 4 14 -6 23 -14 21 -17 -2
-3 6 -6 19 -6 13 0 22 2 20 5 -5 9 8 24 32 37 17 10 23 10 26 0 4 -9 6 -9 6 1
1 6 10 12 21 12 11 0 20 4 20 10 0 5 6 7 14 4 19 -7 28 22 10 36 -8 7 -14 20
-15 29 0 12 -2 12 -6 2 -4 -10 -7 -10 -13 -1 -5 8 -9 7 -14 -5z"/>
<path d="M3875 3070 c-119 -119 -119 -119 -92 -129 15 -6 34 -8 42 -5 10 4 15
0 15 -10 0 -9 6 -16 14 -16 20 0 31 -19 18 -32 -15 -15 -102 -21 -117 -8 -8 6
-11 23 -9 40 4 24 2 28 -15 23 -11 -3 -33 3 -48 13 -56 38 -68 45 -85 50 -10
4 -18 10 -18 13 0 12 -91 74 -97 67 -4 -3 -1 -6 6 -6 7 0 11 -6 8 -13 -3 -7 1
-21 9 -32 11 -15 11 -21 1 -28 -8 -6 -7 -7 5 -4 11 4 30 -9 57 -38 23 -25 41
-49 41 -54 0 -8 -31 -23 -78 -36 -21 -6 -23 -4 -17 14 8 25 7 25 -36 4 -18 -9
-28 -18 -21 -21 7 -2 19 2 27 8 12 10 15 10 15 -2 0 -8 -12 -21 -27 -29 -31
-16 -45 -26 -74 -52 -16 -15 -23 -16 -35 -6 -20 16 -36 0 -37 -37 -1 -16 -6
-32 -11 -35 -5 -4 0 -10 11 -13 11 -4 26 -19 34 -34 8 -15 17 -29 20 -32 11
-10 29 -49 29 -65 0 -15 -3 -15 -27 -1 -16 8 -48 22 -72 31 -38 14 -43 14 -32
1 7 -8 29 -20 49 -27 20 -6 45 -17 55 -24 16 -11 15 -14 -8 -39 -29 -31 -44
-28 -38 8 5 23 0 26 -63 45 -38 11 -99 23 -136 26 -59 6 -68 5 -68 -9 0 -9 -5
-16 -11 -16 -6 0 -9 7 -5 15 3 9 0 15 -8 15 -14 0 -26 30 -26 68 0 14 9 26 25
34 14 6 25 15 25 20 0 11 -3 10 -36 -7 -16 -8 -38 -15 -49 -15 -25 0 -45 -18
-45 -39 0 -9 18 -27 40 -41 23 -13 40 -32 40 -42 0 -10 4 -18 8 -18 4 0 8 -9
8 -20 0 -21 -8 -24 -71 -33 -16 -2 -38 -8 -48 -12 -14 -6 -16 -4 -10 11 4 12
3 15 -5 10 -7 -4 -12 -13 -12 -21 0 -27 -30 -25 -45 5 -17 32 -20 54 -5 30 7
-12 10 -12 10 -1 0 7 6 11 15 8 20 -8 28 9 15 33 -7 13 -21 20 -43 21 -31 0
-32 0 -7 10 20 8 22 12 10 19 -18 10 -99 -9 -118 -27 -7 -7 -28 -13 -45 -14
-26 0 -28 -2 -12 -8 10 -4 32 -3 47 3 35 13 39 8 31 -37 -5 -34 -8 -37 -39
-37 -34 0 -56 -16 -29 -22 13 -3 13 -6 0 -32 -13 -25 -13 -27 1 -22 8 3 12 2
9 -3 -3 -5 -1 -12 4 -15 5 -4 7 -23 4 -43 -5 -31 -4 -35 11 -30 10 4 15 3 11
-3 -3 -6 1 -10 9 -10 20 0 20 -14 1 -33 -8 -8 -11 -17 -8 -21 4 -3 -1 -6 -11
-6 -9 0 -15 4 -11 10 3 5 -7 5 -25 -1 -16 -6 -27 -15 -24 -20 3 -6 12 -5 20 2
12 10 17 9 27 -1 10 -10 9 -12 -5 -7 -10 4 -18 2 -18 -3 0 -14 24 -12 38 2 10
10 15 10 22 -2 8 -13 11 -13 22 -1 10 11 10 14 1 18 -18 6 -16 23 2 23 8 0 15
4 15 10 0 5 -6 8 -12 6 -7 -1 -10 -1 -5 1 4 3 7 16 7 30 0 19 3 23 13 15 14
-12 67 -4 67 9 0 5 5 9 11 9 5 0 7 -5 3 -11 -4 -7 1 -9 12 -7 11 2 18 9 17 14
-1 5 6 10 15 11 51 6 64 9 73 23 9 12 10 12 5 -4 -5 -14 -2 -17 10 -12 12 4
15 2 10 -9 -3 -9 0 -15 9 -15 17 0 10 -29 -12 -46 -9 -8 -11 -18 -5 -35 6 -14
6 -35 0 -49 -8 -24 -11 -25 -89 -23 -44 1 -86 6 -92 12 -7 5 -19 10 -27 12
-24 4 -70 -19 -70 -36 0 -8 -5 -15 -12 -15 -6 0 -9 -3 -6 -6 7 -6 49 16 60 31
4 6 8 -1 8 -14 0 -13 -12 -38 -27 -55 -16 -17 -35 -43 -44 -56 -14 -21 -19
-23 -32 -12 -12 10 -27 11 -64 3 -72 -15 -123 -34 -123 -48 0 -6 -5 -13 -10
-15 -6 -2 -12 -18 -15 -37 -4 -32 -3 -33 26 -27 42 8 161 56 180 72 8 8 23 14
33 14 26 0 56 19 56 35 0 8 9 15 20 15 11 0 20 -4 20 -10 0 -5 19 -1 43 10 57
26 240 102 252 105 47 10 65 19 65 33 0 8 8 39 17 68 16 53 16 54 -7 74 -22
19 -39 24 -66 21 -7 -1 -14 8 -17 20 -5 18 -2 20 18 15 13 -3 27 0 34 8 7 8
21 12 32 9 16 -5 19 -11 14 -34 -6 -27 -5 -28 29 -22 l34 5 -8 -33 c-4 -19
-15 -56 -24 -84 -9 -27 -16 -53 -16 -57 0 -4 23 -14 51 -22 37 -11 57 -13 70
-5 24 12 59 3 59 -17 0 -18 19 -18 40 1 14 13 19 13 38 -1 31 -21 27 -31 -10
-27 -18 2 -40 -1 -48 -7 -13 -8 -11 -13 12 -32 36 -30 56 -80 51 -131 -5 -54
5 -67 50 -69 48 -2 47 -12 -3 -28 -22 -7 -40 -14 -40 -15 0 -2 7 -16 15 -31 8
-16 15 -36 14 -44 0 -8 -8 2 -18 22 -10 21 -26 47 -37 59 -20 22 -169 124
-198 135 -9 3 -16 13 -16 21 0 12 3 12 22 -1 29 -21 33 -20 35 4 1 11 -3 20
-8 20 -6 0 -7 -4 -4 -10 9 -15 -6 -12 -26 5 -20 19 -69 10 -69 -11 0 -16 -39
-35 -53 -27 -11 7 -157 -57 -157 -69 0 -5 -4 -6 -10 -3 -5 3 -7 0 -5 -7 3 -8
15 -15 27 -15 12 -1 24 -7 28 -13 5 -7 14 -8 31 0 l24 11 -25 -5 c-24 -5 -24
-4 -6 9 19 15 19 15 -5 16 -20 1 -21 2 -4 6 11 3 25 9 32 15 7 6 14 5 18 -2 3
-5 1 -10 -5 -10 -6 0 -8 -5 -4 -11 4 -8 9 -8 17 0 6 6 18 11 27 11 12 0 12 -2
2 -9 -10 -6 -8 -10 10 -14 12 -4 25 -2 26 3 2 6 8 10 13 10 6 0 5 -8 -1 -20
-7 -14 -7 -20 0 -20 5 0 10 6 10 13 0 8 8 21 18 30 21 19 66 12 58 -9 -3 -8
-2 -14 3 -14 4 0 6 -14 3 -30 -3 -24 -9 -30 -28 -30 -13 0 -24 5 -24 10 0 6
-5 10 -11 10 -6 0 -8 -8 -5 -17 3 -10 -1 -29 -8 -42 -10 -18 -11 -31 -3 -52 6
-16 9 -30 6 -33 -12 -12 -51 9 -65 36 -13 24 -13 32 -2 46 11 13 11 14 -1 8
-8 -5 -17 -3 -22 5 -7 12 -9 12 -9 0 0 -8 -6 -11 -16 -7 -14 5 -15 4 -5 -7 9
-11 8 -17 -3 -27 -9 -6 -20 -9 -25 -5 -6 3 -22 -17 -35 -44 -14 -27 -30 -52
-35 -55 -12 -8 -63 14 -74 31 -4 7 -26 16 -47 19 -45 7 -49 15 -19 45 14 14
28 19 44 15 13 -3 26 -2 30 4 9 14 -43 24 -59 11 -11 -9 -20 -6 -42 14 -16 15
-23 23 -15 19 9 -4 12 -2 9 7 -7 22 -38 24 -38 2 0 -14 -2 -15 -9 -4 -5 8 -16
11 -26 8 -9 -4 -13 -12 -9 -19 5 -8 2 -9 -9 -5 -10 3 -24 4 -32 1 -13 -5 -13
-9 -3 -22 11 -13 10 -14 -1 -11 -20 7 -48 -22 -43 -44 2 -9 18 -21 36 -26 l31
-10 -37 2 c-27 1 -38 6 -38 17 0 8 -5 22 -10 30 -8 11 -9 8 -4 -12 4 -18 2
-28 -6 -28 -6 0 -8 5 -5 10 3 6 1 10 -4 10 -6 0 -11 -9 -11 -20 0 -11 -4 -20
-10 -20 -5 0 -7 7 -4 15 4 8 1 15 -5 15 -6 0 -11 -5 -11 -11 0 -5 -6 -7 -12
-3 -10 6 -10 4 0 -7 6 -7 12 -24 12 -38 l0 -25 16 22 c19 28 39 30 24 3 -7
-13 -7 -22 0 -26 5 -3 10 -14 10 -23 0 -12 -3 -13 -12 -4 -15 15 -28 15 -28 1
0 -5 5 -7 10 -4 13 8 13 -2 0 -18 -48 -59 -61 -77 -54 -77 4 0 13 8 20 18 12
16 13 15 8 -5 -7 -25 -34 -39 -44 -23 -5 7 -11 6 -19 -4 -14 -16 2 -32 21 -20
6 4 8 3 4 -4 -3 -6 -15 -10 -26 -9 -10 1 -16 5 -14 9 10 16 -13 7 -30 -11 -10
-11 -25 -17 -33 -14 -13 5 -13 3 -4 -16 7 -12 15 -20 19 -17 4 2 8 -3 9 -12 1
-9 4 -28 8 -42 5 -17 4 -21 -3 -11 -8 10 -13 8 -25 -10 -9 -12 -19 -20 -22
-18 -2 3 4 15 15 27 24 25 28 51 5 32 -16 -13 -39 -4 -29 12 5 8 1 9 -10 5
-10 -4 -20 -7 -22 -7 -2 0 -4 -8 -4 -17 0 -16 -2 -16 -11 -3 -8 11 -9 6 -5
-20 l5 -35 -11 32 c-6 17 -19 34 -29 36 -13 3 -19 14 -19 31 0 21 5 26 26 26
20 0 25 4 20 17 -4 9 -2 20 4 23 8 5 6 9 -4 13 -14 6 -21 -7 -18 -34 1 -3 -4
-6 -11 -6 -7 -1 -32 -4 -56 -8 l-44 -8 7 27 c7 27 6 27 -24 21 -23 -5 -30 -3
-30 9 0 9 -4 16 -8 16 -5 0 -9 14 -9 30 0 34 -7 45 -22 35 -16 -9 -13 -41 4
-55 13 -11 13 -15 0 -33 -10 -14 -11 -26 -5 -38 7 -12 6 -19 -3 -23 -9 -5 -9
-7 1 -12 6 -3 12 -12 12 -20 0 -8 -6 -14 -12 -14 -9 0 -9 -3 1 -9 11 -7 10
-10 -5 -14 -15 -4 -15 -5 5 -6 16 -1 21 -5 17 -16 -3 -8 -2 -14 2 -13 4 1 17
-3 29 -10 14 -8 20 -18 16 -32 -3 -11 -1 -20 3 -21 5 0 18 -2 28 -4 10 -2 29
3 40 11 20 12 25 11 56 -14 36 -31 37 -55 1 -65 -12 -3 -19 -1 -15 4 3 5 -2 9
-10 9 -8 0 -19 -8 -25 -17 -14 -25 -46 -4 -46 28 0 20 -5 24 -30 26 -16 2 -35
9 -40 16 -9 12 -12 12 -23 1 -20 -22 -15 -44 11 -41 19 2 23 -4 27 -42 5 -43
6 -44 22 -27 10 9 22 15 28 11 6 -4 7 1 3 12 -6 17 -5 17 15 -1 23 -20 30 -32
12 -21 -5 3 -26 -3 -47 -14 l-38 -20 35 5 c19 2 58 6 85 8 28 1 57 6 66 10 11
5 28 -4 54 -28 30 -29 41 -34 56 -25 11 5 19 14 19 20 0 6 7 6 20 -1 26 -14
40 -5 40 26 0 22 -2 23 -20 14 -17 -9 -22 -7 -30 15 -5 14 -15 25 -21 25 -7 0
-9 9 -5 26 6 22 4 26 -11 22 -13 -4 -18 1 -18 18 0 12 4 20 9 17 5 -3 7 6 4
20 -3 15 -1 24 4 21 4 -3 11 2 14 10 3 9 14 16 23 17 10 0 11 2 4 6 -7 2 -13
12 -13 20 0 13 3 13 18 -3 27 -30 65 -44 79 -29 14 15 52 8 59 -10 3 -7 14
-11 25 -8 28 8 24 -21 -6 -37 -13 -7 -27 -22 -31 -33 -6 -18 -16 -19 -55 -3
-12 5 -18 1 -21 -16 -3 -18 0 -24 16 -25 56 -3 100 11 134 43 20 19 40 34 45
34 4 0 6 4 2 9 -7 12 15 26 24 15 25 -35 40 -36 98 -8 32 15 59 29 61 30 2 1
0 23 -3 47 l-7 46 -25 -25 c-29 -29 -100 -36 -89 -8 3 9 6 18 6 20 0 3 5 2 10
-1 16 -10 24 24 10 41 -7 8 -19 13 -26 10 -18 -7 -31 13 -39 57 -4 20 -11 40
-16 43 -18 11 -9 21 16 19 14 -2 23 0 20 5 -3 4 2 11 11 14 8 3 12 2 9 -4 -3
-6 3 -10 14 -10 15 0 23 -10 32 -40 7 -22 18 -40 26 -40 17 0 17 11 -3 38 -15
22 -15 24 5 29 12 3 21 9 21 13 0 4 10 5 23 3 17 -3 26 2 35 21 13 28 33 34
50 13 12 -14 4 -32 -16 -38 -10 -3 -8 -11 8 -31 11 -15 27 -25 34 -22 9 3 17
-9 25 -40 6 -25 10 -51 9 -57 -2 -6 2 -13 8 -16 7 -2 9 8 6 27 -4 29 -3 30 35
30 49 0 59 -9 32 -28 -20 -14 -20 -16 -4 -24 18 -11 55 15 55 39 0 7 6 13 13
13 19 0 92 -44 92 -56 0 -5 -21 -34 -47 -64 l-48 -55 -36 20 c-27 14 -35 24
-31 41 3 16 -3 24 -28 33 -43 15 -46 14 -40 -12 3 -12 7 -50 9 -84 l3 -63 -33
0 c-28 0 -33 4 -39 30 -4 16 -4 34 -1 39 3 5 -1 11 -9 15 -8 3 -15 2 -15 -2 0
-5 -15 -16 -32 -25 -18 -10 -48 -29 -67 -42 -20 -14 -48 -25 -66 -25 -27 0
-35 -5 -45 -30 -7 -16 -21 -32 -31 -35 -10 -4 -19 -13 -19 -20 0 -8 -13 -24
-30 -37 -16 -12 -30 -25 -30 -30 0 -11 38 -10 60 2 12 7 27 7 45 0 38 -14 65
3 65 41 0 28 2 29 33 26 17 -3 40 -8 49 -12 17 -7 48 14 48 32 0 5 30 13 68
19 37 6 92 23 122 37 30 14 85 39 123 55 64 30 79 44 57 57 -18 11 -10 30 19
48 16 9 34 17 39 17 19 0 23 -33 6 -51 -15 -17 -14 -18 22 -8 22 6 46 17 55
25 9 8 19 11 24 7 4 -5 -15 28 -43 73 -27 44 -60 102 -72 130 -13 27 -40 86
-62 132 -21 46 -39 88 -41 94 -2 13 58 36 93 37 23 0 23 -1 5 -9 -13 -6 -15
-9 -5 -9 11 -1 12 -3 3 -9 -9 -6 -6 -21 12 -61 14 -29 29 -50 34 -47 16 10 71
14 71 5 0 -5 9 -9 20 -9 21 0 23 -5 20 -59 -1 -18 4 -37 10 -41 9 -5 9 -9 1
-14 -6 -4 -11 -3 -11 3 0 6 -6 8 -14 5 -8 -3 -17 -1 -21 5 -3 6 -15 11 -26 11
-19 0 -19 -2 7 -50 26 -49 49 -68 38 -32 -3 9 5 -1 16 -22 17 -30 24 -36 31
-25 6 10 9 11 9 1 0 -7 10 -17 23 -22 13 -5 16 -9 7 -10 -13 0 -13 -1 0 -10
12 -8 11 -10 -6 -10 -12 0 -24 -7 -28 -15 -3 -8 -1 -15 4 -15 6 0 10 5 10 12
0 6 3 9 6 5 3 -3 37 8 74 24 75 32 84 34 75 19 -7 -11 53 11 155 57 36 17 86
38 113 48 l47 18 0 104 c0 87 -2 104 -14 100 -8 -3 -17 -1 -20 6 -5 9 -8 9
-12 -1 -5 -10 -11 -9 -27 5 -11 10 -17 13 -14 7 4 -7 -8 -15 -34 -22 -31 -8
-38 -8 -30 2 6 7 8 16 4 19 -3 4 3 9 13 13 32 10 68 27 95 46 14 10 29 15 33
11 3 -3 6 28 6 70 0 67 -2 76 -20 82 -11 3 -25 3 -32 0 -7 -4 -2 3 12 14 14
11 28 21 33 21 4 0 7 111 7 246 0 276 1 273 -71 274 -22 0 -44 8 -58 21 -26
24 -23 44 7 43 12 0 19 3 16 7 -2 4 6 11 18 15 13 4 24 2 26 -5 7 -22 23 -11
16 12 -13 42 -20 45 -76 31 -54 -15 -117 -9 -130 10 -16 23 -6 35 45 54 97 36
94 36 106 1 10 -28 14 -31 41 -26 23 5 32 2 40 -13 6 -11 8 -25 5 -30 -3 -5 0
-12 6 -15 7 -5 9 24 7 96 l-3 104 -47 -2 c-27 0 -48 3 -48 8 0 5 7 9 15 9 8 0
23 9 33 20 11 12 26 18 34 15 14 -6 16 13 17 144 1 83 0 151 -1 151 -2 0 -57
-54 -123 -120z m-418 -812 c13 -12 23 -30 23 -40 0 -10 5 -18 10 -18 12 0 13
-20 2 -37 -6 -9 -30 -4 -97 18 -50 17 -94 34 -98 38 -4 4 -3 20 2 34 10 25 15
27 73 27 50 0 66 -4 85 -22z m331 -350 c18 -53 18 -105 -1 -126 -19 -21 -23
-62 -6 -62 5 0 7 -5 3 -12 -6 -9 -9 -9 -12 0 -2 8 -15 6 -43 -8 -21 -11 -39
-23 -39 -26 0 -3 4 -3 9 0 9 6 25 -23 17 -31 -2 -3 -23 -7 -46 -10 -41 -6 -42
-5 -39 23 4 34 -8 57 -23 48 -6 -4 -8 -2 -5 3 4 6 -2 22 -14 37 -13 17 -19 37
-17 58 3 31 5 33 41 33 40 0 54 18 42 55 -5 15 -2 20 14 20 10 0 28 2 38 5 11
3 9 1 -4 -6 -34 -18 -28 -26 22 -27 39 -2 45 1 45 18 0 11 -5 20 -11 20 -5 0
-7 5 -4 10 11 18 21 11 33 -22z"/>
<path d="M3755 3162 c-16 -9 -52 -24 -80 -33 -43 -14 -52 -22 -64 -54 l-15
-38 40 -33 c44 -38 56 -41 74 -19 17 20 30 19 30 -2 1 -16 2 -16 16 2 8 11 12
25 10 31 -3 7 3 10 15 7 13 -4 19 0 19 11 0 11 -5 15 -12 10 -7 -4 -5 2 5 14
13 14 17 28 12 43 -5 14 -4 19 4 15 6 -4 11 -13 11 -21 0 -8 4 -16 9 -19 4 -3
6 6 3 19 -5 26 7 32 25 14 15 -15 34 -3 26 16 -3 8 0 15 6 15 6 0 11 -5 11
-11 0 -5 5 -7 10 -4 21 13 8 24 -44 39 -64 19 -72 19 -111 -2z"/>
<path d="M937 2830 c-9 -11 -14 -26 -11 -35 3 -8 0 -28 -8 -45 -11 -27 -17
-31 -41 -26 -15 3 -38 1 -51 -4 -21 -8 -28 -5 -44 17 -23 31 -45 23 -40 -15 3
-24 -2 -29 -44 -43 -41 -13 -44 -17 -30 -27 14 -11 11 -12 -20 -8 -43 5 -78
-2 -78 -16 0 -7 20 -8 53 -4 l52 6 -42 -19 c-41 -19 -57 -41 -30 -41 8 0 7 -4
-3 -10 -23 -15 -30 -12 -30 14 0 49 -12 84 -31 89 -23 6 -26 37 -3 37 8 0 12
5 9 10 -11 18 -24 11 -31 -16 -5 -20 -11 -24 -28 -20 -12 3 -28 1 -36 -4 -13
-9 -13 -11 0 -20 8 -6 22 -9 31 -6 12 2 15 -2 12 -15 -3 -11 -9 -19 -14 -19
-20 0 -7 -20 16 -26 l26 -6 -21 -35 c-25 -42 -25 -43 -1 -43 23 0 37 18 33 42
-2 12 2 15 17 11 12 -3 18 -10 15 -15 -4 -6 2 -8 17 -3 13 3 32 9 42 11 9 3
17 1 17 -5 0 -6 -4 -11 -10 -11 -5 0 -10 -8 -9 -17 0 -11 3 -13 6 -5 2 6 9 12
15 12 20 0 62 42 63 63 0 12 6 21 12 20 7 -2 20 8 29 22 9 14 21 22 27 18 6
-4 8 0 4 10 -7 19 36 50 74 51 21 1 27 -4 27 -21 0 -12 -10 -26 -22 -31 -17
-9 -18 -11 -4 -11 10 -1 15 -6 12 -15 -7 -17 30 -28 45 -13 6 6 11 7 11 3 0
-5 7 -3 15 4 8 7 15 17 15 23 0 6 -7 2 -15 -9 -14 -18 -15 -17 -4 7 6 14 16
26 22 27 66 9 77 15 77 41 0 25 3 27 31 23 23 -3 30 -1 24 7 -5 8 -1 11 11 9
10 -2 19 2 19 9 0 6 3 15 8 19 11 11 9 26 -3 19 -5 -3 -10 -1 -10 4 0 6 5 11
12 11 6 0 9 2 6 5 -13 13 -60 -9 -73 -34 -8 -14 -14 -20 -15 -13 0 6 -11 12
-25 12 -14 0 -28 7 -31 15 -4 8 -13 15 -21 15 -10 0 -12 6 -8 20 8 25 4 25
-18 0z"/>
<path d="M3908 1297 c-108 -52 -156 -106 -126 -144 5 -7 7 -17 3 -23 -8 -14
-55 -13 -55 1 0 6 6 9 14 6 20 -8 28 4 14 20 -9 11 -9 17 3 24 8 5 9 9 2 9 -6
0 -20 3 -30 6 -10 3 -14 2 -8 -3 14 -12 12 -36 -6 -63 -16 -24 -17 -24 -43 -7
-22 15 -25 21 -16 37 14 26 2 26 -55 -2 -38 -18 -45 -26 -43 -48 2 -19 -2 -26
-18 -28 -12 -2 -28 4 -36 12 -13 13 -32 7 -159 -50 -79 -35 -148 -65 -154 -67
-5 -3 2 -18 18 -34 32 -35 34 -49 6 -58 -30 -10 -17 -17 52 -29 l60 -11 -37
-57 c-46 -70 -65 -81 -57 -33 5 33 5 34 -28 28 -19 -3 -41 -9 -50 -14 -9 -4
-19 -6 -22 -3 -5 5 -27 -50 -27 -67 0 -14 47 -10 59 5 6 7 9 21 5 30 -4 11 -1
16 11 16 13 0 16 -7 13 -30 -2 -16 -1 -31 4 -32 15 -5 -53 -78 -73 -78 -11 0
-24 -11 -31 -25 -6 -14 -17 -24 -24 -21 -17 6 -28 -10 -13 -19 5 -4 8 -14 4
-23 -3 -8 -2 -18 3 -21 4 -3 -14 -28 -41 -56 -27 -27 -47 -45 -44 -40 3 6 -9
11 -26 12 l-32 2 24 -18 24 -19 -48 -78 c-27 -44 -68 -99 -91 -124 -23 -25
-65 -74 -92 -110 l-51 -65 251 -3 c162 -1 255 1 263 8 9 7 21 7 39 0 17 -6
148 -10 330 -10 l303 0 47 26 c26 15 49 24 52 21 3 -3 -11 -15 -33 -26 -37
-20 -37 -20 -10 -21 16 0 37 5 47 10 18 10 19 28 20 381 l0 370 -20 -11 c-16
-9 -25 -8 -36 1 -23 19 -17 36 21 58 36 21 45 45 21 54 -8 3 -15 24 -18 51 -3
39 0 46 14 46 17 0 18 15 18 185 0 142 -3 185 -12 184 -7 0 -43 -15 -80 -32z
m-284 -323 c11 -4 16 -19 16 -45 0 -33 -4 -40 -25 -45 -14 -3 -37 -4 -50 -2
-17 4 -25 1 -25 -8 0 -19 -15 -18 -48 3 -54 35 -57 63 -7 63 28 0 35 4 35 20
0 17 7 20 44 20 24 0 51 -3 60 -6z m276 -764 c19 -10 74 -100 66 -108 -3 -2
-26 -5 -51 -6 -41 -1 -50 -6 -46 -30 1 -5 -5 -6 -13 -3 -9 4 -18 2 -22 -4 -8
-13 -44 19 -44 39 0 8 12 23 26 34 17 14 25 29 24 47 -1 14 -2 29 -1 34 1 10
39 9 61 -3z"/>
<path d="M2439 883 c-13 -21 -33 -48 -46 -60 -13 -12 -23 -29 -23 -37 0 -19
73 -58 103 -55 12 1 33 -3 47 -9 19 -8 30 -7 48 4 26 17 67 2 58 -21 -3 -9 7
-18 27 -24 31 -10 32 -13 29 -54 l-3 -42 20 25 c11 13 17 28 15 32 -3 4 0 8 5
8 6 0 11 6 11 14 0 7 8 24 19 37 10 13 24 42 31 64 7 22 19 44 26 48 10 6 11
13 4 27 -7 13 -6 20 3 24 6 3 2 3 -11 0 -13 -3 -28 -1 -35 4 -14 12 -40 -4
-50 -30 -7 -20 -32 -24 -42 -8 -8 12 -35 13 -54 1 -13 -8 -13 -12 0 -28 13
-17 13 -17 -4 -4 -9 8 -21 11 -24 7 -4 -4 -2 -11 5 -15 9 -5 5 -11 -13 -19
-15 -7 -24 -8 -20 -3 3 5 1 12 -5 16 -6 4 -7 11 -4 17 4 7 2 8 -4 4 -7 -4 -12
-2 -12 3 0 6 5 11 10 11 6 0 10 12 10 26 0 22 -2 25 -15 14 -8 -7 -13 -15 -11
-19 3 -4 1 -13 -4 -21 -6 -9 -3 -18 7 -25 13 -10 13 -14 3 -20 -8 -5 -11 -4
-7 2 4 6 -12 8 -45 5 l-51 -5 7 44 c4 24 13 49 21 55 16 12 20 44 6 44 -5 0
-20 -17 -32 -37z"/>
<path d="M2126 515 c5 -13 -15 -27 -51 -35 -16 -3 -35 -21 -35 -33 0 -6 3 -7
6 -4 4 4 20 -3 35 -14 28 -20 28 -21 13 -50 -8 -17 -22 -33 -29 -36 -8 -3 -13
-8 -11 -12 3 -4 -4 -8 -15 -8 -20 -2 -26 12 -9 22 6 4 7 12 3 18 -4 7 0 6 10
-2 9 -7 17 -12 18 -10 0 2 2 14 5 26 2 12 5 28 6 35 2 8 -8 13 -24 14 -16 1
-25 -3 -21 -9 4 -6 -7 -7 -28 -4 -38 7 -73 -6 -44 -16 9 -4 13 -3 10 3 -3 6 0
10 8 10 20 0 10 -37 -12 -44 -9 -2 -1 -4 16 -3 43 2 47 -17 5 -21 -18 -2 -36
-10 -39 -18 -3 -7 -10 -11 -17 -7 -6 3 -8 3 -4 -1 4 -5 -11 -36 -32 -71 -21
-35 -48 -82 -60 -104 -16 -33 -26 -41 -48 -41 -31 0 -52 16 -52 39 0 8 -12 27
-26 42 -18 19 -24 33 -19 48 7 22 25 29 25 11 0 -7 8 -6 23 2 12 6 32 11 45 9
12 -1 22 2 22 8 0 6 -7 7 -17 4 -9 -4 -14 -2 -10 3 4 6 -6 9 -24 6 -18 -3 -29
0 -29 7 0 8 -5 9 -19 1 -11 -5 -32 -10 -48 -10 -34 0 -60 -14 -44 -24 6 -4 11
-11 11 -16 0 -17 -81 -63 -116 -67 -31 -3 -114 -45 -114 -58 0 -14 47 -45 68
-45 24 0 24 -1 9 -18 -36 -40 -27 -42 207 -42 l224 0 5 32 c3 21 -1 39 -10 50
-12 14 -12 20 -2 40 7 13 13 28 14 33 1 24 20 17 20 -7 1 -15 5 -31 9 -35 5
-4 6 2 3 14 -7 30 4 35 27 12 12 -11 14 -19 7 -19 -7 0 -10 -4 -6 -10 3 -5 12
-7 21 -3 18 7 70 -42 54 -52 -5 -3 -10 -17 -10 -31 0 -23 3 -24 60 -24 41 0
60 4 61 13 1 6 2 36 4 66 1 43 7 57 26 73 13 11 18 17 11 13 -16 -8 -92 25
-92 41 0 7 -7 17 -16 22 -15 9 -15 13 -1 53 29 84 40 128 34 141 -2 8 1 25 9
39 16 28 18 69 4 69 -5 0 -7 -7 -4 -15z"/>
<path d="M2270 235 c0 -14 -5 -24 -12 -22 -21 4 -41 -56 -46 -136 l-5 -77 81
0 c45 0 83 4 86 9 3 5 8 34 10 66 2 32 9 61 16 65 7 4 -2 6 -21 5 -19 -2 -37
-4 -41 -4 -12 -2 -26 -58 -18 -72 6 -8 4 -16 -3 -21 -8 -5 -5 -8 8 -8 17 -1
17 -3 -6 -15 -14 -7 -34 -12 -45 -10 -10 2 -25 4 -32 4 -10 1 -12 17 -6 74 4
39 11 75 16 78 6 4 18 25 29 48 15 34 16 41 4 41 -9 0 -15 -10 -15 -25z"/>
</g>
</svg>
